<svg xmlns="http://www.w3.org/2000/svg" xmlns:xlink="http://www.w3.org/1999/xlink" width="500" zoomAndPan="magnify" viewBox="0 0 375 374.999991" height="500" preserveAspectRatio="xMidYMid meet"><defs><clipPath id="d41e51bbf0"><path d="M 20 21.59375 L 357.695312 21.59375 L 357.695312 336 L 20 336 Z M 20 21.59375 " clip-rule="nonzero"></path></clipPath></defs><g clip-path="url(#d41e51bbf0)"><path fill="#d2d0a7" d="M 305.660156 280.816406 C 308.855469 284.007812 308.855469 289.523438 305.660156 292.71875 L 273.421875 324.9375 C 245.246094 353.09375 166.242188 321.164062 100.308594 255.5625 C 67.488281 222.46875 42.21875 186.183594 29.4375 152.511719 C 17.238281 121.160156 17.820312 95.617188 30.890625 82.554688 L 63.128906 50.625 C 64.875 48.882812 66.90625 48.011719 69.230469 48.011719 C 71.554688 48.011719 73.585938 48.882812 75.328125 50.625 L 126.160156 101.421875 C 127.902344 103.164062 128.773438 105.195312 128.773438 107.519531 C 128.773438 109.839844 127.902344 111.871094 126.160156 113.613281 L 112.796875 126.96875 C 101.46875 138.289062 97.113281 155.414062 100.597656 174.574219 C 104.085938 193.152344 114.25 211.730469 129.644531 226.824219 C 145.039062 242.207031 163.628906 252.367188 181.925781 255.851562 C 201.097656 259.335938 218.234375 254.980469 229.5625 243.660156 L 242.921875 230.308594 C 246.117188 227.113281 251.636719 227.113281 254.832031 230.308594 Z M 357.652344 90.972656 C 357.652344 129.289062 313.792969 160.347656 259.769531 160.347656 C 245.828125 160.347656 232.175781 158.316406 219.105469 154.253906 C 217.652344 153.671875 215.621094 153.964844 214.457031 154.835938 C 210.390625 157.445312 205.164062 160.347656 199.355469 163.832031 L 202.550781 152.511719 C 203.421875 149.898438 202.257812 146.996094 199.644531 145.835938 C 175.539062 132.484375 161.59375 112.742188 161.59375 91.261719 C 161.59375 52.65625 205.453125 21.59375 259.480469 21.59375 C 313.503906 21.59375 357.652344 52.65625 357.652344 90.972656 Z M 231.59375 90.972656 C 231.59375 86.039062 227.820312 82.265625 222.882812 82.265625 C 217.945312 82.265625 214.167969 86.039062 214.167969 90.972656 C 214.167969 95.90625 217.945312 99.679688 222.882812 99.679688 C 227.820312 99.679688 231.59375 95.617188 231.59375 90.972656 Z M 268.191406 90.972656 C 268.191406 86.039062 264.417969 82.265625 259.480469 82.265625 C 254.542969 82.265625 250.765625 86.039062 250.765625 90.972656 C 250.765625 95.90625 254.542969 99.679688 259.480469 99.679688 C 264.417969 99.679688 268.191406 95.617188 268.191406 90.972656 Z M 304.789062 90.972656 C 304.789062 86.039062 301.015625 82.265625 296.078125 82.265625 C 291.140625 82.265625 287.363281 86.039062 287.363281 90.972656 C 287.363281 95.90625 291.140625 99.679688 296.078125 99.679688 C 301.015625 99.679688 304.789062 95.617188 304.789062 90.972656 Z M 304.789062 90.972656 " fill-opacity="1" fill-rule="nonzero"></path></g></svg>