<svg xmlns="http://www.w3.org/2000/svg" xmlns:xlink="http://www.w3.org/1999/xlink" width="500" zoomAndPan="magnify" viewBox="0 0 375 374.999991" height="500" preserveAspectRatio="xMidYMid meet"><defs><clipPath id="f15657e429"><path d="M 18.96875 38 L 355.71875 38 L 355.71875 312 L 18.96875 312 Z M 18.96875 38 " clip-rule="nonzero"></path></clipPath></defs><g clip-path="url(#f15657e429)"><path fill="#d2d0a7" d="M 106.941406 146.105469 L 106.941406 180.875 L 82.285156 180.875 C 80.886719 180.875 79.203125 181.433594 78.082031 182.554688 L 55.671875 206.390625 C 57.351562 200.222656 59.03125 194.050781 60.714844 187.882812 C 61.273438 186.199219 60.714844 184.519531 59.875 183.117188 C 58.753906 181.714844 57.070312 180.875 55.390625 180.875 L 46.707031 180.875 C 31.578125 180.875 18.96875 168.535156 18.96875 153.113281 L 18.96875 66.191406 C 18.96875 51.046875 31.296875 38.429688 46.707031 38.429688 L 194.910156 38.429688 C 210.039062 38.429688 222.644531 50.769531 222.644531 66.191406 L 222.644531 102.082031 L 151.203125 102.082031 C 126.832031 102.082031 106.941406 121.988281 106.941406 146.105469 Z M 355.71875 146.105469 L 355.71875 247.046875 C 355.71875 265.273438 340.871094 280.132812 322.660156 280.132812 L 312.574219 280.132812 C 310.894531 280.132812 309.214844 280.976562 308.09375 282.378906 C 306.972656 283.78125 306.691406 285.460938 307.253906 287.144531 L 312.296875 305.652344 C 312.855469 307.613281 313.417969 309.855469 313.976562 311.820312 C 304.453125 301.726562 294.925781 291.910156 285.679688 281.816406 C 284.558594 280.695312 283.160156 280.132812 281.476562 280.132812 L 151.203125 280.132812 C 132.996094 280.132812 118.144531 265.273438 118.144531 247.046875 L 118.144531 146.105469 C 118.144531 127.878906 132.996094 113.015625 151.203125 113.015625 L 322.941406 113.015625 C 340.871094 113.296875 355.71875 128.15625 355.71875 146.105469 Z M 147.003906 162.925781 L 266.070312 162.925781 L 266.070312 151.710938 L 147.003906 151.710938 Z M 147.003906 199.097656 L 284.839844 199.097656 L 284.839844 187.882812 L 147.003906 187.882812 Z M 304.730469 224.054688 L 147.003906 224.054688 L 147.003906 235.269531 L 304.453125 235.269531 L 304.453125 224.054688 Z M 304.730469 224.054688 " fill-opacity="1" fill-rule="nonzero"></path></g></svg>